<svg xmlns="http://www.w3.org/2000/svg" viewBox="0 0 1200 630" width="1200" height="630" role="img" aria-label="CRGS Lab social card">
  <defs>
    <radialGradient id="g1" cx="14%" cy="0%" r="60%"><stop offset="0%" stop-color="#E2B583" stop-opacity="0.30"/><stop offset="100%" stop-color="#E2B583" stop-opacity="0"/></radialGradient>
    <radialGradient id="g2" cx="92%" cy="6%" r="55%"><stop offset="0%" stop-color="#8C4E34" stop-opacity="0.16"/><stop offset="100%" stop-color="#8C4E34" stop-opacity="0"/></radialGradient>
  </defs>
  <rect width="1200" height="630" fill="#F3EEE3"/>
  <rect width="1200" height="630" fill="url(#g1)"/>
  <rect width="1200" height="630" fill="url(#g2)"/>

  <!-- oversized watermark mark -->
  <g transform="translate(905,150) scale(4.2)" opacity="0.06">
    <g fill="#1D1813"><rect x="25" y="14.3" width="30" height="5.4" rx="2.4"/><rect x="22" y="23.5" width="36" height="5.4" rx="2.4"/><rect x="19" y="32.7" width="42" height="5.4" rx="2.4"/><rect x="17" y="41.9" width="46" height="5.4" rx="2.4"/><rect x="15" y="51.1" width="50" height="5.4" rx="2.4"/></g>
    <rect x="13" y="60.3" width="54" height="6" rx="2.8" fill="#8C4E34"/><line x1="40" y1="10" x2="40" y2="66.3" stroke="#8C4E34" stroke-width="3.4" stroke-linecap="round"/><circle cx="40" cy="10" r="4.1" fill="#8C4E34"/>
  </g>

  <!-- mark + wordmark -->
  <g transform="translate(80,52) scale(0.74)">
    <g fill="#1D1813"><rect x="25" y="14.3" width="30" height="5.4" rx="2.4"/><rect x="22" y="23.5" width="36" height="5.4" rx="2.4"/><rect x="19" y="32.7" width="42" height="5.4" rx="2.4"/><rect x="17" y="41.9" width="46" height="5.4" rx="2.4"/><rect x="15" y="51.1" width="50" height="5.4" rx="2.4"/></g>
    <rect x="13" y="60.3" width="54" height="6" rx="2.8" fill="#8C4E34"/><line x1="40" y1="10" x2="40" y2="66.3" stroke="#8C4E34" stroke-width="3.4" stroke-linecap="round"/><circle cx="40" cy="10" r="4.1" fill="#8C4E34"/><circle cx="40" cy="10" r="1.6" fill="#F3EEE3"/>
  </g>
  <text x="143" y="104" font-family="Fraunces" font-size="42" font-weight="700" fill="#1D1813">CRGS<tspan font-style="italic" fill="#8C4E34" font-weight="600"> Lab</tspan></text>
  <text x="84" y="150" font-family="JetBrains Mono" font-size="15" letter-spacing="3" fill="#8C4E34">CONSTITUTIONAL · RUNTIME · GOVERNANCE SYSTEMS</text>

  <!-- headline -->
  <text x="80" y="312" font-family="Fraunces" font-size="68" font-weight="600" fill="#1D1813">Observability <tspan font-style="italic" fill="#8C4E34">describes</tspan></text>
  <text x="80" y="388" font-family="Fraunces" font-size="68" font-weight="600" fill="#1D1813">behavior. We <tspan font-style="italic" fill="#8C4E34">govern</tspan> it.</text>

  <!-- sub -->
  <text x="82" y="468" font-family="Inter" font-size="25" fill="#5C5147">Governance that regulates AI behavior during execution — not after failure.</text>

  <!-- kernel strip -->
  <rect x="0" y="578" width="1200" height="52" fill="#16130F"/>
  <circle cx="84" cy="604" r="5" fill="#347A52"/>
  <text x="100" y="609" font-family="JetBrains Mono" font-size="15" letter-spacing="1.5" fill="#EDE4D4"><tspan fill="#C77C50">CRGS //</tspan> runtime-first   ·   06-layer stack   ·   07 research programs   ·   CRGS-LAB-001</text>
</svg>
